<svg version="1.0"
                                 xmlns="http://www.w3.org/2000/svg" xmlns:xlink="http://www.w3.org/1999/xlink"
                                 xmlns:a="http://ns.adobe.com/AdobeSVGViewerExtensions/3.0/"
                                 x="0px" y="0px" width="43.6px" height="43.6px" viewBox="0 0 43.6 43.6"
                                 style="enable-background:new 0 0 43.6 43.6;"
                                 xml:space="preserve">
<style type="text/css">
    .st1 {
        fill: #E84038;
    }
</style>
                                <defs>
                                </defs>
                                <path class="st1" d="M43.6,43L29.4,0.3c0,0,0-0.1-0.1-0.1c0,0,0,0,0,0c0,0,0,0,0,0c0,0,0,0,0,0c0,0,0,0-0.1,0c0,0-0.1,0-0.1-0.1
	c0,0,0,0,0,0C29,0,29,0,29,0H14.7c-0.1,0-0.2,0.1-0.3,0.1c0,0-0.1,0.1-0.1,0.2L0,43c-0.1,0.1,0,0.3,0,0.4c0.1,0.1,0.2,0.2,0.4,0.2
	h10.4c1.6,0,3-0.6,4.1-1.8c0.6-0.6,1-1.3,1.3-2c0,0,0,0,0-0.1l5.5-16.6l5.5,16.6c0,0,0,0,0,0h0c0.3,0.8,0.7,1.4,1.3,2.1
	c1.1,1.1,2.6,1.8,4.1,1.8h10.4c0.1,0,0.3-0.1,0.4-0.2S43.7,43.1,43.6,43z M15.5,39.4C15.5,39.4,15.5,39.5,15.5,39.4
	C15.5,39.5,15.5,39.5,15.5,39.4c-0.2,0.7-0.6,1.3-1.1,1.8c-0.9,1-2.2,1.5-3.5,1.5H1L15,0.9h13.4l-3.6,10.7l-3.4,10.1c0,0,0,0,0,0
	L15.5,39.4z M32.8,42.7c-1.3,0-2.6-0.5-3.5-1.5c-0.5-0.5-0.9-1.1-1.1-1.7c0,0,0,0,0-0.1l-5.9-17.7l2.8-8.5L29,1.8l13.6,41H32.8z"/>
</svg>