<svg version="1.0"
                                     xmlns="http://www.w3.org/2000/svg" xmlns:xlink="http://www.w3.org/1999/xlink"
                                     xmlns:a="http://ns.adobe.com/AdobeSVGViewerExtensions/3.0/"
                                     x="0px" y="0px" width="64px" height="42px" viewBox="0 0 206 135.5"
                                     style="enable-background:new 0 0 206 135.5;"
                                     xml:space="preserve">
<style type="text/css">
    .st0 {
        fill: #24BFCE;
    }
</style>
                                    <defs>
                                    </defs>
                                    <g>
                                        <path class="st0" d="M25.5,75.5h32.9c1.9,0,3.5-1.6,3.5-3.5V48.5c0-1.9-1.6-3.5-3.5-3.5H25.5c-1.9,0-3.5,1.6-3.5,3.5V72
        C22,73.9,23.5,75.5,25.5,75.5z M29,52h25.9v16.4H29V52z"/>
                                        <path class="st0"
                                              d="M118.9,90.4H25.5c-1.9,0-3.5,1.6-3.5,3.5s1.6,3.5,3.5,3.5h93.4c1.9,0,3.5-1.6,3.5-3.5S120.8,90.4,118.9,90.4z"
                                            />
                                        <path class="st0"
                                              d="M66.9,105.1H25.5c-1.9,0-3.5,1.6-3.5,3.5s1.6,3.5,3.5,3.5h41.4c1.9,0,3.5-1.6,3.5-3.5S68.8,105.1,66.9,105.1z"
                                            />
                                        <path class="st0" d="M138.8,44.6c-3.5,0-6.9,1.2-9.6,3.3c-2.7-2.1-6-3.3-9.6-3.3c-8.6,0-15.6,7-15.6,15.6c0,8.6,7,15.6,15.6,15.6
        c3.5,0,6.9-1.2,9.6-3.3c2.7,2.1,6,3.3,9.6,3.3c8.6,0,15.6-7,15.6-15.6C154.4,51.6,147.4,44.6,138.8,44.6z M138.8,68.8
        c-2.7,0-5.2-1.2-6.8-3.3c-0.7-0.9-1.7-1.4-2.8-1.4s-2.1,0.5-2.8,1.4c-1.6,2.1-4.1,3.3-6.8,3.3c-4.7,0-8.6-3.9-8.6-8.6
        c0-4.7,3.9-8.6,8.6-8.6c2.7,0,5.2,1.2,6.8,3.3c0.7,0.9,1.7,1.4,2.8,1.4s2.1-0.5,2.8-1.4c1.6-2.1,4.1-3.3,6.8-3.3
        c4.7,0,8.6,3.9,8.6,8.6C147.4,65,143.5,68.8,138.8,68.8z"/>
                                        <path class="st0" d="M188.5,0H46.1c-9.6,0-17.5,7.8-17.5,17.5v4.3H17.5C7.8,21.7,0,29.6,0,39.2v78.9c0,9.6,7.8,17.5,17.5,17.5
        h142.4c9.6,0,17.5-7.8,17.5-17.5v-4.3h11.2c9.6,0,17.5-7.8,17.5-17.5V17.5C206,7.8,198.1,0,188.5,0z M168.3,118.1
        c0,4.7-3.8,8.5-8.5,8.5H17.5c-4.7,0-8.5-3.8-8.5-8.5V39.2c0-4.7,3.8-8.5,8.5-8.5h142.4c4.7,0,8.5,3.8,8.5,8.5V118.1z M197,96.3
        c0,4.7-3.8,8.5-8.5,8.5h-11.2V59.1H197V96.3z M197,52.1h-19.7V39.2c0-1.2-0.1-2.4-0.4-3.5h20V52.1z M197,28.7h-23.2
        c-3.2-4.2-8.2-7-13.9-7H37.7v-4.3c0-4.7,3.8-8.5,8.5-8.5h142.4c4.7,0,8.5,3.8,8.5,8.5V28.7z"/>
                                    </g>
</svg>