<svg version="1.0"
                                 xmlns="http://www.w3.org/2000/svg" xmlns:xlink="http://www.w3.org/1999/xlink"
                                 xmlns:a="http://ns.adobe.com/AdobeSVGViewerExtensions/3.0/"
                                 x="0px" y="0px" width="44px" height="42.9px" viewBox="0 0 44 42.9"
                                 style="enable-background:new 0 0 44 42.9;"
                                 xml:space="preserve">
<style type="text/css">
    .st1 {
        fill: #E84038;
    }
</style>
                                <defs>
                                </defs>
                                <g>
                                    <path class="st1" d="M43.9,10.7l-3.3-3.3c-0.2-0.2-0.5-0.2-0.7,0l-3.3,3.3l-6.4,6.4V0.5C30.2,0.2,30,0,29.7,0H0.5
		C0.2,0,0,0.2,0,0.5v41.9c0,0.3,0.2,0.5,0.5,0.5h29.2c0.3,0,0.5-0.2,0.5-0.5V25.1l10.4-10.4l3.3-3.3C44.1,11.2,44.1,10.9,43.9,10.7z
		 M29.2,41.9H1V1h28.2v17.1l-9.6,9.6c-0.1,0-0.1,0-0.2,0H8.2c-0.3,0-0.5,0.2-0.5,0.5s0.2,0.5,0.5,0.5h10.5L18.4,29
		c0,0-0.1,0.1-0.1,0.2l-2.2,5.3c-0.1-0.1-0.2-0.1-0.3-0.1H8.2c-0.3,0-0.5,0.2-0.5,0.5s0.2,0.5,0.5,0.5h7.6c0.1,0,0.2,0,0.3-0.1
		c0,0,0,0,0,0c0.1,0.1,0.2,0.1,0.4,0.1c0.1,0,0.1,0,0.2,0l5.6-2.3c0.1,0,0.1-0.1,0.2-0.1l6.9-6.9V41.9z M29.4,24.5
		C29.4,24.5,29.4,24.5,29.4,24.5l-7.7,7.7L17.4,34l1.8-4.3L37,11.7l2.6,2.6L29.4,24.5z M40.3,13.6L37.7,11l2.6-2.6l2.6,2.6
		L40.3,13.6z"/>
                                    <path class="st1"
                                          d="M8.2,8.6H22c0.3,0,0.5-0.2,0.5-0.5S22.3,7.6,22,7.6H8.2c-0.3,0-0.5,0.2-0.5,0.5S7.9,8.6,8.2,8.6z"/>
                                    <path class="st1"
                                          d="M8.2,15.3H22c0.3,0,0.5-0.2,0.5-0.5s-0.2-0.5-0.5-0.5H8.2c-0.3,0-0.5,0.2-0.5,0.5S7.9,15.3,8.2,15.3z"/>
                                    <path class="st1"
                                          d="M8.2,22H22c0.3,0,0.5-0.2,0.5-0.5S22.3,21,22,21H8.2c-0.3,0-0.5,0.2-0.5,0.5S7.9,22,8.2,22z"/>
                                </g>
</svg>