<svg version="1.0"
                                     xmlns="http://www.w3.org/2000/svg" xmlns:xlink="http://www.w3.org/1999/xlink"
                                     xmlns:a="http://ns.adobe.com/AdobeSVGViewerExtensions/3.0/"
                                     x="0px" y="0px" width="70px" height="55px" viewBox="0 0 236.1 176.1"
                                     style="enable-background:new 0 0 236.1 176.1;"
                                     xml:space="preserve">
<style type="text/css">
    .st0 {
        fill: #24BFCE;
    }
</style>
                                    <defs>
                                    </defs>
                                    <g>
                                        <path class="st0" d="M134,86.6h-3.2c-1.3-4.7-3.1-9.1-5.5-13.3l2.3-2.3c5.2-5.2,5.2-13.6,0-18.7l-3.7-3.7c-5.2-5.2-13.6-5.2-18.8,0
		l-2.3,2.3c-4.2-2.4-8.6-4.2-13.3-5.5v-3.2c0-7.3-5.9-13.3-13.3-13.3H71c-7.3,0-13.3,5.9-13.3,13.3v3.2c-4.7,1.3-9.1,3.1-13.3,5.5
		l-2.3-2.3c-5.2-5.2-13.6-5.2-18.7,0l-3.7,3.7c-5.2,5.2-5.2,13.6,0,18.8l2.3,2.3c-2.4,4.2-4.2,8.6-5.5,13.3h-3.2
		C5.9,86.6,0,92.5,0,99.8v5.3c0,7.3,5.9,13.3,13.3,13.3h3.2c1.3,4.7,3.1,9.1,5.5,13.3l-2.3,2.3c-5.2,5.2-5.2,13.6,0,18.7l3.7,3.7
		c2.5,2.5,5.8,3.9,9.4,3.9c3.5,0,6.9-1.4,9.4-3.9l2.3-2.3c4.2,2.4,8.6,4.2,13.3,5.5v3.2c0,7.3,5.9,13.3,13.3,13.3h5.3
		c7.3,0,13.3-5.9,13.3-13.3v-3.2c4.7-1.3,9.1-3.1,13.3-5.5l2.3,2.3c2.5,2.5,5.8,3.9,9.4,3.9c3.5,0,6.9-1.4,9.4-3.9l3.7-3.7
		c5.2-5.2,5.2-13.6,0-18.7v0l-2.3-2.3c2.4-4.2,4.2-8.6,5.5-13.3h3.2c7.3,0,13.3-5.9,13.3-13.3v-5.3C147.3,92.5,141.3,86.6,134,86.6z
		 M138.3,105.1c0,2.3-1.9,4.3-4.3,4.3h-6.8c-2.1,0-4,1.5-4.4,3.6c-1.3,6.1-3.6,11.8-7,17c-1.2,1.8-0.9,4.1,0.6,5.6l4.8,4.8
		c1.7,1.7,1.7,4.4,0,6l-3.7,3.7c-0.8,0.8-1.9,1.2-3,1.2c-1.1,0-2.2-0.4-3-1.2l-4.8-4.8c-1.5-1.5-3.9-1.7-5.6-0.6
		c-5.2,3.4-10.9,5.7-17,7c-2.1,0.4-3.6,2.3-3.6,4.4v6.8c0,2.3-1.9,4.3-4.3,4.3H71c-2.3,0-4.3-1.9-4.3-4.3v-6.8c0-2.1-1.5-4-3.6-4.4
		c-6.1-1.3-11.8-3.6-17-7c-0.8-0.5-1.6-0.7-2.5-0.7c-1.2,0-2.3,0.4-3.2,1.3l-4.8,4.8c-0.8,0.8-1.9,1.2-3,1.2c-1.1,0-2.2-0.4-3-1.2
		l-3.7-3.7c-1.7-1.7-1.7-4.4,0-6l4.8-4.8c1.5-1.5,1.8-3.9,0.6-5.6c-3.4-5.2-5.7-10.9-7-17c-0.4-2.1-2.3-3.6-4.4-3.6h-6.8
		c-2.3,0-4.3-1.9-4.3-4.3v-5.3c0-2.3,1.9-4.3,4.3-4.3H20c2.1,0,4-1.5,4.4-3.6c1.3-6.1,3.6-11.8,7-17c1.2-1.8,0.9-4.1-0.6-5.6
		l-4.8-4.8c-1.7-1.7-1.7-4.4,0-6l3.7-3.7c1.7-1.7,4.4-1.7,6,0l4.8,4.8c1.5,1.5,3.9,1.8,5.6,0.6c4.6-3,9.6-5.2,14.9-6.5
		c3.3-0.8,5.6-3.8,5.6-7.3v-4.4c0-2.3,1.9-4.3,4.3-4.3h5.3c2.3,0,4.3,1.9,4.3,4.3v6.8c0,2.1,1.5,4,3.6,4.4c6.1,1.3,11.8,3.6,17,7
		c1.8,1.2,4.1,0.9,5.6-0.6l4.8-4.8c1.7-1.7,4.4-1.7,6,0l3.7,3.7c1.7,1.7,1.7,4.4,0,6l-4.8,4.8c-1.5,1.5-1.8,3.9-0.6,5.6
		c3.4,5.2,5.7,10.9,7,17c0.4,2.1,2.3,3.6,4.4,3.6h6.8c2.3,0,4.3,1.9,4.3,4.3V105.1z"/>
                                        <path class="st0" d="M92.9,121.8c10.6-10.6,10.6-27.9,0-38.6c-10.6-10.6-27.9-10.6-38.6,0c-10.6,10.6-10.6,27.9,0,38.6
		c5.3,5.3,12.3,8,19.3,8C80.6,129.8,87.6,127.1,92.9,121.8z M60,88.8c3.8-3.8,8.7-5.6,13.6-5.6c4.9,0,9.9,1.9,13.6,5.6
		c7.5,7.5,7.5,19.8,0,27.3c-7.5,7.5-19.8,7.5-27.3,0S52.5,96.4,60,88.8z"/>
                                        <path class="st0" d="M96.9,74.2c-1.4,1.4-1.4,3.6,0,4.9c12.8,12.8,12.8,33.7,0,46.6c-6.2,6.2-14.5,9.6-23.3,9.6
		c-1.9,0-3.5,1.6-3.5,3.5s1.6,3.5,3.5,3.5c10.7,0,20.7-4.2,28.2-11.7c15.6-15.6,15.6-40.9,0-56.5C100.5,72.9,98.3,72.9,96.9,74.2z"
                                            />
                                        <path class="st0" d="M83.7,72.7c1.3,0.5,2.5,1,3.7,1.6c0.7,0.3,1.4,0.5,2.1,0.5c1.6,0,3.2-0.9,4-2.4c1.1-2.2,0.3-4.9-1.9-6.1
		c-1.5-0.8-3.2-1.5-4.8-2.1c-2.3-0.9-4.9,0.3-5.8,2.7C80.2,69.3,81.4,71.8,83.7,72.7z"/>
                                        <path class="st0" d="M62.1,133.3c-4.4-1.7-8.4-4.2-11.7-7.6c-12.8-12.8-12.8-33.7,0-46.6c5.9-5.9,13.7-9.3,21.9-9.6
		c1.9-0.1,3.4-1.7,3.4-3.6c-0.1-1.9-1.8-3.4-3.6-3.4C62,63,52.5,67.1,45.4,74.2c-15.6,15.6-15.6,40.9,0,56.5
		c4.1,4.1,8.9,7.2,14.2,9.2c0.4,0.2,0.8,0.2,1.2,0.2c1.4,0,2.8-0.9,3.3-2.3C64.8,136,63.9,134,62.1,133.3z"/>
                                        <path class="st0" d="M234.7,56.1c-1.4-2.5-3.7-4.2-6.4-5l-1.2-0.3c-0.1-2.8-0.4-5.6-1.1-8.3l1.1-0.6c5.1-2.9,6.9-9.4,4-14.5
		l-1.8-3.2c-2.9-5.1-9.4-6.9-14.5-4l-1.1,0.6c-2-1.9-4.3-3.6-6.6-5.1l0.3-1.2c1.5-5.7-1.8-11.5-7.5-13.1l-3.6-1
		c-5.7-1.5-11.5,1.8-13.1,7.5l-0.3,1.2c-2.8,0.1-5.6,0.4-8.3,1.1L173.9,9c-2.9-5.1-9.4-6.9-14.5-4l-3.2,1.8c-2.5,1.4-4.2,3.7-5,6.4
		s-0.4,5.6,1,8.1l0.6,1.1c-1.9,2-3.6,4.2-5.1,6.6l-1.2-0.3c-2.7-0.7-5.6-0.4-8.1,1c-2.5,1.4-4.2,3.7-5,6.4l-1,3.6
		c-0.7,2.7-0.4,5.6,1,8.1c1.4,2.5,3.7,4.2,6.4,5l1.2,0.3c0.1,2.8,0.4,5.6,1.1,8.3l-1.1,0.6c-5.1,2.9-6.9,9.4-4,14.5l1.8,3.2
		c2.9,5.1,9.4,6.9,14.5,4l1.1-0.6c2,1.9,4.3,3.6,6.6,5.1l-0.3,1.2c-1.5,5.7,1.8,11.5,7.5,13.1l3.6,1c0.9,0.3,1.9,0.4,2.8,0.4
		c4.7,0,9-3.1,10.3-7.8l0.3-1.2c2.8-0.1,5.6-0.4,8.3-1.1l0.6,1.1c2.9,5.1,9.4,6.9,14.5,4l3.2-1.8c5.1-2.9,6.9-9.4,4-14.5l-0.6-1.1
		c1.9-2,3.6-4.3,5.1-6.6l1.2,0.3c2.7,0.7,5.6,0.4,8.1-1c2.5-1.4,4.2-3.7,5-6.4l1-3.6C236.5,61.4,236.1,58.5,234.7,56.1z M227,61.8
		l-1,3.6c-0.2,0.6-0.5,0.9-0.8,1s-0.7,0.3-1.2,0.2l-4.6-1.2c-2-0.6-4.2,0.4-5.2,2.3c-1.9,3.7-4.5,7-7.6,9.8c-1.6,1.4-2,3.7-0.9,5.6
		l2.4,4.1v0c0.5,0.8,0.2,1.8-0.6,2.2l-3.2,1.8c-0.8,0.5-1.8,0.2-2.2-0.6l-2.4-4.1c-1.1-1.8-3.3-2.7-5.3-2.1c-4,1.3-8.1,1.8-12.3,1.6
		c-2.1-0.1-4,1.3-4.6,3.3l-1.2,4.6c-0.2,0.9-1.1,1.4-2,1.2l-3.6-1c-0.9-0.2-1.4-1.1-1.2-2l1.2-4.6c0.6-2.1-0.4-4.2-2.3-5.2
		c-3.7-1.9-7-4.5-9.8-7.6c-0.9-1-2.1-1.5-3.4-1.5c-0.8,0-1.5,0.2-2.2,0.6l-4.1,2.4c-0.8,0.4-1.8,0.2-2.2-0.6l-1.8-3.2
		c-0.5-0.8-0.2-1.8,0.6-2.2l4.1-2.4c1.8-1.1,2.7-3.3,2.1-5.3c-1.3-4-1.8-8.1-1.6-12.3c0.1-2.1-1.3-4-3.3-4.6l-4.6-1.2
		c-0.6-0.2-0.9-0.5-1-0.8s-0.3-0.7-0.2-1.2l1-3.6c0.2-0.6,0.5-0.9,0.8-1c0.2-0.1,0.7-0.3,1.2-0.2l4.6,1.2c2,0.6,4.2-0.4,5.2-2.3
		c1.9-3.7,4.5-7,7.6-9.8c1.6-1.4,2-3.7,0.9-5.6l-2.4-4.1c-0.3-0.5-0.2-1-0.2-1.2c0.1-0.2,0.3-0.7,0.8-1l3.2-1.8
		c0.8-0.4,1.8-0.2,2.2,0.6l2.4,4.1c1.1,1.8,3.3,2.7,5.3,2.1c3.5-1.1,7.1-1.7,10.9-1.6c3,0,5.7-2,6.5-4.9l0.8-3
		c0.2-0.9,1.1-1.4,2-1.2l3.6,1c0.9,0.2,1.4,1.1,1.2,2l-1.2,4.6c-0.6,2.1,0.4,4.2,2.3,5.2c3.7,1.9,7,4.5,9.8,7.6
		c1.4,1.6,3.7,2,5.6,0.9l4.1-2.4c0.8-0.5,1.8-0.2,2.2,0.6l1.8,3.2c0.3,0.5,0.2,1,0.2,1.2c-0.1,0.2-0.3,0.7-0.8,1l-4.1,2.4
		c-1.8,1.1-2.7,3.3-2.1,5.3c1.3,4,1.8,8.1,1.6,12.3c-0.1,2.1,1.3,4,3.3,4.6l4.6,1.2c0.6,0.2,0.9,0.5,1,0.8S227.2,61.2,227,61.8z"/>
                                        <path class="st0" d="M171.8,30.5c-5.7,3.3-9.8,8.6-11.6,15c-1.7,6.4-0.9,13,2.4,18.8c4.6,8,12.9,12.5,21.5,12.5
		c4.2,0,8.4-1,12.2-3.3c5.7-3.3,9.8-8.6,11.6-15c1.7-6.4,0.9-13-2.4-18.8C198.8,27.9,183.7,23.8,171.8,30.5z M199.3,56.1
		c-1.1,4.1-3.7,7.4-7.4,9.5c-7.5,4.3-17.1,1.7-21.5-5.8c-2.1-3.6-2.6-7.9-1.5-11.9c1.1-4.1,3.7-7.4,7.4-9.5c2.5-1.4,5.1-2.1,7.8-2.1
		c5.5,0,10.8,2.8,13.7,7.9C199.8,47.8,200.4,52.1,199.3,56.1z"/>
                                    </g>
</svg>