<svg version="1.0"
                                 xmlns="http://www.w3.org/2000/svg" xmlns:xlink="http://www.w3.org/1999/xlink"
                                 xmlns:a="http://ns.adobe.com/AdobeSVGViewerExtensions/3.0/"
                                 x="0px" y="0px" width="46.4px" height="30px" viewBox="0 0 46.4 30"
                                 style="enable-background:new 0 0 46.4 30;"
                                 xml:space="preserve">
<style type="text/css">
    .st1 {
        fill: #E84038;
    }
</style>
                                <defs>
                                </defs>
                                <path class="st1" d="M46.3,0.3C46.3,0.3,46.3,0.3,46.3,0.3C46.3,0.3,46.3,0.3,46.3,0.3c0-0.1-0.1-0.2-0.2-0.2c0,0,0,0,0,0
	C46,0,46,0,45.9,0H0.5C0.4,0,0.3,0,0.2,0.1c0,0,0,0,0,0C0.1,0.2,0.1,0.2,0,0.3c0,0,0,0,0,0c0,0,0,0,0,0c0,0.1,0,0.1,0,0.2v29
	C0,29.8,0.2,30,0.5,30h45.4c0.3,0,0.5-0.2,0.5-0.5v-29C46.4,0.4,46.4,0.4,46.3,0.3z M44.5,1L22.8,19.8l-5-4.5c0,0,0,0,0,0L1.8,1
	H44.5z M1,29V1.6l15.8,14.1L5.4,25.6c-0.2,0.2-0.2,0.5,0,0.7c0.1,0.1,0.2,0.2,0.4,0.2c0.1,0,0.2,0,0.3-0.1l11.4-9.9l5,4.5
	c0,0,0.1,0.1,0.2,0.1c0,0,0,0,0,0c0.2,0.1,0.4,0,0.5-0.1l5.6-4.9l11.3,10.3c0.2,0.2,0.5,0.2,0.7,0c0.2-0.2,0.2-0.5,0-0.7L29.6,15.3
	L45.4,1.6V29H1z"/>
</svg>