<svg version="1.0"
                                     xmlns="http://www.w3.org/2000/svg" xmlns:xlink="http://www.w3.org/1999/xlink"
                                     xmlns:a="http://ns.adobe.com/AdobeSVGViewerExtensions/3.0/"
                                     x="0px" y="0px" width="53px" height="57px" viewBox="0 0 206.7 221.3"
                                     style="enable-background:new 0 0 206.7 221.3;"
                                     xml:space="preserve">
<style type="text/css">
    .st0 {
        fill: #24BFCE;
    }
</style>
                                    <defs>
                                    </defs>
                                    <path class="st0" d="M196.4,182.5c-5.2-21.3-13.5-40.4-24.2-55.2c-8.4-11.6-18.2-20.6-29.3-26.8c0.7-1.1,1.4-2.2,2.1-3.3
	c2.1-3.6,3.9-7.6,5.4-11.9h9.5c9.9,0,18-8.1,18-18v-5.6c0-9.9-8.1-18-18-18h-4.8C150.9,18.9,129.3,0,103.4,0S55.8,18.9,51.6,43.7
	h-4.8c-9.9,0-18,8.1-18,18v5.6c0,9.9,8.1,18,18,18h10c1.6,4.3,3.5,8.3,5.7,12c0.5,0.8,0.9,1.5,1.4,2.2C52,105.7,41.6,115,32.8,127.3
	c-12.4,17.4-19.4,37.9-23.3,55.8C3.7,188,0,195.3,0,203.5c0,2.5,2,4.5,4.5,4.5h6.2h29.9l1.2,9.4c0.3,2.3,2.2,3.9,4.5,3.9h114.4
	c2.3,0,4.2-1.7,4.5-3.9l1.2-9.4h29.7h6.4c2.5,0,4.5-2,4.5-4.5C206.7,195,202.7,187.4,196.4,182.5z M59.9,55.4
	c7.8,2.1,22.1,3,41.5-7.9v6.3c0,1.3,0.6,2.5,1.5,3.4c0.8,0.7,1.9,1.1,3,1.1c0.2,0,0.4,0,0.6,0c0.6-0.1,14.3-1.9,28.2-10.9
	c2.1-1.4,2.7-4.1,1.3-6.2c-1.4-2.1-4.1-2.7-6.2-1.3c-2.8,1.8-5.6,3.3-8.2,4.5l-11.1,0.8v-5.6c0-1.7-0.9-3.2-2.4-4
	c-1.5-0.8-3.2-0.7-4.6,0.2C90.9,44.1,80.8,47,73.3,47.6l-0.2,0c-6,0.4-10.3-0.6-12.8-1.5c3.1-21,21.2-37.1,43-37.1
	c24,0,43.5,19.5,43.5,43.5c0,7.3-1,16.3-3.5,25l-0.3-0.2c-0.2,0.3-3.1,4.4-10.7,7.8l-8.7,2.9c-2.7,0.6-5.8,1.2-9.3,1.4
	c-1.3-1.8-3.4-3-5.8-3h-5.3c-3.9,0-7.1,3.2-7.1,7.1V96c0,3.9,3.2,7.1,7.1,7.1h5.3c2.6,0,4.8-1.4,6.1-3.4c8.9-0.7,15.9-2.7,21.3-5
	c-6.7,10.6-17.1,18.3-32.6,18.3c-14,0-25.1-6.8-33.1-20.4C64.2,82.4,60.4,68.7,59.9,55.4z M40.2,132.6c8.3-11.6,18.1-20.2,29.3-25.8
	c9,10,20.5,15.2,33.9,15.2c13.6,0,25.1-4.9,34-14.3c24.5,13.2,40.2,40.4,48.5,69.9c-1.8-0.4-3.7-0.6-5.6-0.6
	c-3.7,0-7.3,0.8-10.5,2.2l3.1-25.1c0.2-1.3-0.2-2.6-1.1-3.5c-0.9-1-2.1-1.5-3.4-1.5H38.3c-1.3,0-2.5,0.6-3.4,1.5
	c-0.9,1-1.3,2.3-1.1,3.5l3.1,25.1c-3.2-1.4-6.8-2.2-10.5-2.2c-2.2,0-4.4,0.3-6.4,0.8C24,162.7,30.2,146.6,40.2,132.6z M15.8,199H9.6
	c0.1-0.5,0.3-1,0.5-1.5c0.1-0.1,0.1-0.3,0.2-0.4c0.1-0.4,0.3-0.7,0.5-1.1c0.1-0.2,0.1-0.3,0.2-0.5c0.2-0.3,0.4-0.7,0.6-1
	c0.1-0.1,0.1-0.2,0.2-0.4c0.3-0.4,0.5-0.8,0.8-1.2c0,0,0.1-0.1,0.1-0.1c1-1.3,2.2-2.5,3.6-3.5c0,0,0,0,0,0c0.5-0.3,0.9-0.6,1.4-0.9
	l0,0c2.6-1.5,5.6-2.4,8.8-2.4c4.6,0,8.8,1.8,11.9,4.7l1,8.3H15.8z M50.2,212.3l-0.6-4.5l0,0L47,186.7l0,0L43.4,158h119.9l-3.6,28.7
	l0,0l-2.6,21.2l0,0l-0.6,4.5H50.2z M190.6,199h-23.3l1-8.3c3.1-2.9,7.3-4.7,11.9-4.7c3,0,5.8,0.8,8.3,2.1l0,0c0.5,0.3,1,0.6,1.5,0.9
	c0,0,0.1,0.1,0.1,0.1c0.4,0.3,0.8,0.6,1.2,0.9c0.1,0.1,0.2,0.2,0.3,0.3c0.3,0.3,0.7,0.6,1,0.9c0.1,0.1,0.2,0.2,0.3,0.3
	c0.4,0.4,0.7,0.8,1.1,1.2c0,0,0,0,0,0c0.3,0.4,0.7,0.9,1,1.4c0.1,0.1,0.1,0.2,0.2,0.3c0.2,0.3,0.4,0.7,0.6,1.1
	c0.1,0.2,0.2,0.3,0.2,0.5c0.2,0.4,0.3,0.7,0.5,1.1c0.1,0.2,0.1,0.3,0.2,0.5c0.2,0.5,0.4,1,0.5,1.6H190.6z"/>
</svg>