<svg version="1.0"
                                     xmlns="http://www.w3.org/2000/svg" xmlns:xlink="http://www.w3.org/1999/xlink"
                                     xmlns:a="http://ns.adobe.com/AdobeSVGViewerExtensions/3.0/"
                                     x="0px" y="0px" width="53px" height="52px" viewBox="0 0 199.8 196.1"
                                     style="enable-background:new 0 0 199.8 196.1;"
                                     xml:space="preserve">
<style type="text/css">
    .st0 {
        fill: #24BFCE;
    }
</style>
                                    <defs>
                                    </defs>
                                    <g>
                                        <path class="st0" d="M154.1,98.2h-12.7c-1.9,0-3.5,1.6-3.5,3.5s1.6,3.5,3.5,3.5h12.7c1.9,0,3.5-1.6,3.5-3.5S156.1,98.2,154.1,98.2z
		"/>
                                        <circle class="st0" cx="147.5" cy="178.6" r="3.6"/>
                                        <circle class="st0" cx="99.9" cy="131" r="3.6"/>
                                        <path class="st0" d="M179.3,0H20.5C9.2,0,0,9.2,0,20.5v109.5c0,11.3,9.2,20.5,20.5,20.5h47.6l-10,29.6c-0.5,1.4-0.2,2.9,0.6,4.1
		c0.8,1.2,2.2,1.9,3.7,1.9h45.5c2.5,0,4.5-2,4.5-4.5s-2-4.5-4.5-4.5H68.7l9-26.6h37V184c0,6.7,5.4,12.1,12.1,12.1h42
		c6.7,0,12.1-5.4,12.1-12.1v-33.5c10.6-0.8,18.9-9.7,18.9-20.4V20.5C199.8,9.2,190.6,0,179.3,0z M171.9,163.7h-48.3V92
		c0-1.7,1.4-3.1,3.1-3.1h42c1.7,0,3.1,1.4,3.1,3.1V163.7z M168.7,187.1h-42c-1.7,0-3.1-1.4-3.1-3.1v-13.3h48.3V184
		C171.9,185.7,170.5,187.1,168.7,187.1z M190.8,130.1c0,5.8-4.3,10.6-9.9,11.4V92c0-6.7-5.4-12.1-12.1-12.1h-42
		c-6.7,0-12.1,5.4-12.1,12.1v49.7H20.5c-6.4,0-11.5-5.2-11.5-11.5v-9.2h98.9c1.9,0,3.5-1.6,3.5-3.5s-1.6-3.5-3.5-3.5H9V20.5
		C9,14.2,14.2,9,20.5,9h158.7c6.4,0,11.5,5.2,11.5,11.5V130.1z"/>
                                    </g>
</svg>