  <svg version="1.0"
                                 xmlns="http://www.w3.org/2000/svg" xmlns:xlink="http://www.w3.org/1999/xlink"
                                 xmlns:a="http://ns.adobe.com/AdobeSVGViewerExtensions/3.0/"
                                 x="0px" y="0px" width="44.9px" height="45.9px" viewBox="0 0 44.9 45.9"
                                 style="enable-background:new 0 0 44.9 45.9;"
                                 xml:space="preserve">
<style type="text/css">
    .st1 {
        fill: #E84038;
    }
</style>
                                <defs>
                                </defs>
                                <g>
                                    <path class="st1" d="M31.9,24.7l-3.6,9.6c-0.1,0.1,0,0.3,0.1,0.4c0.1,0.1,0.2,0.2,0.4,0.2h7.2c0.1,0,0.3-0.1,0.4-0.2
		c0.1-0.1,0.1-0.3,0.1-0.4l-3.6-9.6C32.6,24.4,32,24.4,31.9,24.7z M29.4,34l2.9-7.8l2.9,7.8H29.4z"/>
                                    <path class="st1" d="M44.9,45.3L35,18.8c-0.1-0.2-0.2-0.3-0.4-0.3h-4.4c-0.2,0-0.4,0.1-0.4,0.3l-3.5,9.4l-4.5-4.5
		c3.6-4.1,6.3-8.8,8-14h6.1c0.2,0,0.5-0.2,0.5-0.5V4.9c0-0.2-0.2-0.5-0.5-0.5h-15v-4c0-0.2-0.2-0.5-0.5-0.5h-4.4
		c-0.2,0-0.5,0.2-0.5,0.5v4h-15C0.2,4.4,0,4.6,0,4.9v4.4c0,0.2,0.2,0.5,0.5,0.5h24c-1.5,3.9-3.6,7.5-6.3,10.7
		c-1.8-2.1-3.4-4.4-4.7-6.9c-0.1-0.2-0.2-0.2-0.4-0.2H8.6c-0.2,0-0.3,0.1-0.4,0.2c-0.1,0.1-0.1,0.3,0,0.4c1.6,3.5,3.7,6.9,6.4,9.9
		L3.6,34.5c-0.1,0.1-0.1,0.2-0.1,0.3c0,0.1,0,0.2,0.1,0.3l3.1,3.1c0.1,0.1,0.2,0.1,0.3,0.1s0.2,0,0.3-0.1l10.7-10.7l6.1,6.1
		l-4.4,11.7c-0.1,0.1,0,0.3,0.1,0.4c0.1,0.1,0.2,0.2,0.4,0.2h4.4c0.2,0,0.4-0.1,0.4-0.3l2.4-6.3h9.8l2.4,6.3
		c0.1,0.2,0.2,0.3,0.4,0.3h4.4c0.1,0,0.3-0.1,0.4-0.2C44.9,45.6,44.9,45.4,44.9,45.3z M18.4,26.6c-0.2-0.2-0.5-0.2-0.6,0L7.1,37.3
		l-2.5-2.5l10.9-10.8c0.2-0.2,0.2-0.4,0-0.6c-2.5-2.8-4.6-6-6.2-9.3h3.4c1.4,2.6,3,5,5,7.2c0.1,0.1,0.2,0.1,0.3,0.1
		c0.1,0,0.2-0.1,0.3-0.1c3.1-3.5,5.5-7.5,7.1-12c0-0.1,0-0.3-0.1-0.4c-0.1-0.1-0.2-0.2-0.4-0.2H0.9V5.3h15c0.2,0,0.5-0.2,0.5-0.5v-4
		h3.5v4c0,0.2,0.2,0.5,0.5,0.5h15v3.5h-6c-0.2,0-0.4,0.1-0.4,0.3c-1.6,5.3-4.4,10.1-8.1,14.3c-0.1,0.1-0.1,0.2-0.1,0.3
		c0,0.1,0,0.2,0.1,0.3l5.1,5.1l-1.3,3.6L18.4,26.6z M40.4,45L38,38.7c-0.1-0.2-0.2-0.3-0.4-0.3H27.1c-0.2,0-0.4,0.1-0.4,0.3L24.3,45
		h-3.4l4.3-11.3c0,0,0,0,0,0l1.7-4.5c0,0,0,0,0,0l3.7-9.7h3.8L43.8,45H40.4z"/>
                                </g>
</svg>